<svg width="200" height="200" viewBox="0 0 200 200" fill="none" xmlns="http://www.w3.org/2000/svg">
<rect width="200" height="200" fill="white"/>
<path d="M110.888 126.256C109.469 122.475 114.144 119.569 116.913 122.15L117.294 122.563L135.106 144.188C135.854 145.105 136.4 146.169 136.709 147.311C137.018 148.454 137.083 149.648 136.899 150.817C136.715 151.986 136.287 153.103 135.642 154.096C134.997 155.088 134.15 155.933 133.157 156.576C132.163 157.219 131.046 157.646 129.876 157.827C128.707 158.009 127.512 157.943 126.371 157.632C125.229 157.321 124.165 156.773 123.25 156.023C122.334 155.273 121.587 154.339 121.056 153.281L120.719 152.494L110.888 126.256ZM114.9 104.475L115.431 104.638L141.669 114.469C142.776 114.886 143.782 115.532 144.623 116.364C145.463 117.197 146.119 118.197 146.547 119.3C146.975 120.402 147.166 121.583 147.108 122.764C147.049 123.946 146.742 125.102 146.206 126.157C145.671 127.211 144.919 128.142 144 128.886C143.081 129.631 142.016 130.174 140.873 130.48C139.73 130.785 138.536 130.846 137.368 130.659C136.2 130.472 135.084 130.041 134.094 129.394L133.363 128.85L111.738 111.044C108.613 108.481 111.206 103.619 114.9 104.481V104.475ZM165.625 100C165.625 104.931 161.438 108.744 156.625 108.4L155.819 108.306L128.188 103.7C124.238 103.044 124.019 97.65 127.525 96.4625L128.188 96.3L155.819 91.6938C157.026 91.4921 158.262 91.556 159.442 91.8809C160.622 92.2059 161.717 92.7842 162.65 93.5754C163.583 94.3667 164.333 95.352 164.847 96.4626C165.361 97.5732 165.626 98.7825 165.625 100.006V100ZM146 73.4375C148.456 77.6875 146.75 83.0688 142.45 85.1875L141.663 85.5313L115.425 95.3625C111.644 96.7813 108.738 92.1063 111.319 89.3375L111.725 88.9563L133.356 71.1438C134.3 70.3664 135.403 69.8041 136.586 69.496C137.77 69.188 139.006 69.1414 140.21 69.3598C141.413 69.5781 142.555 70.056 143.555 70.7602C144.555 71.4644 145.389 72.378 146 73.4375ZM132.813 43.1688C137.05 45.6188 138.269 51.0938 135.644 55.0813L135.1 55.8125L117.294 77.4375C114.731 80.5625 109.869 77.9688 110.731 74.275L110.888 73.7438L120.719 47.5C121.148 46.3549 121.821 45.317 122.692 44.4585C123.562 43.6 124.609 42.9414 125.76 42.5286C126.911 42.1158 128.138 41.9586 129.356 42.0681C130.574 42.1776 131.754 42.551 132.813 43.1625V43.1688ZM82.7063 122.563C85.2688 119.438 90.1313 122.031 89.2688 125.725L89.1125 126.256L79.2813 152.5C78.864 153.607 78.2181 154.613 77.3858 155.454C76.5534 156.295 75.5533 156.95 74.4505 157.378C73.3478 157.807 72.1672 157.998 70.9857 157.939C69.8042 157.88 68.6483 157.573 67.5935 157.038C66.5386 156.502 65.6084 155.751 64.8635 154.832C64.1186 153.913 63.5758 152.847 63.2704 151.704C62.9649 150.561 62.9038 149.367 63.0909 148.199C63.278 147.031 63.7091 145.915 64.3563 144.925L64.8938 144.194L82.7063 122.569V122.563ZM88.675 110.663L88.2625 111.044L66.6375 128.856C65.7205 129.604 64.6561 130.15 63.5137 130.459C62.3714 130.768 61.1767 130.833 60.0077 130.649C58.8387 130.465 57.7216 130.037 56.7293 129.392C55.737 128.747 54.8918 127.9 54.2488 126.907C53.6058 125.913 53.1795 124.796 52.9976 123.626C52.8158 122.457 52.8825 121.262 53.1934 120.121C53.5043 118.979 54.0524 117.915 54.802 117C55.5516 116.084 56.4859 115.337 57.5438 114.806L58.3313 114.469L84.5688 104.638C88.35 103.219 91.2563 107.894 88.675 110.663ZM43.375 91.6L44.1813 91.6938L71.8125 96.3C75.7625 96.9625 75.9813 102.35 72.475 103.538L71.8125 103.7L44.1813 108.306C43.01 108.5 41.811 108.443 40.663 108.141C39.515 107.838 38.444 107.296 37.5203 106.55C36.5966 105.805 35.8411 104.872 35.3033 103.813C34.7656 102.755 34.4577 101.595 34.4001 100.409C34.3424 99.2233 34.5362 98.0387 34.9687 96.9331C35.4012 95.8275 36.0626 94.8259 36.9096 93.994C37.7566 93.1621 38.7699 92.5187 39.8831 92.1061C40.9963 91.6935 42.1842 91.5211 43.3688 91.6H43.375ZM65.9063 70.6063L66.6375 71.15L88.2625 88.9563C91.3875 91.5188 88.7938 96.3813 85.1 95.5188L84.5688 95.3625L58.3313 85.5313C57.2244 85.114 56.2178 84.4681 55.3772 83.6358C54.5367 82.8034 53.8809 81.8033 53.4528 80.7005C53.0247 79.5978 52.8338 78.4172 52.8925 77.2357C52.9512 76.0542 53.2583 74.8983 53.7937 73.8435C54.3291 72.7886 55.0807 71.8584 55.9997 71.1135C56.9187 70.3686 57.9843 69.8258 59.1272 69.5204C60.27 69.2149 61.4644 69.1538 62.6324 69.3409C63.8005 69.528 64.916 69.9591 65.9063 70.6063ZM78.9438 46.7188L79.2813 47.5063L89.1125 73.7438C90.5313 77.5313 85.8563 80.4313 83.0875 77.85L82.7063 77.4438L64.8938 55.8125C64.1458 54.8955 63.5996 53.8311 63.2907 52.6887C62.9818 51.5464 62.9173 50.3517 63.1012 49.1827C63.2852 48.0137 63.7135 46.8966 64.3583 45.9043C65.003 44.912 65.8498 44.0668 66.8432 43.4238C67.8367 42.7808 68.9545 42.3545 70.1238 42.1726C71.2932 41.9908 72.4877 42.0575 73.6295 42.3684C74.7713 42.6793 75.8347 43.2274 76.7504 43.977C77.6661 44.7266 78.4135 45.6608 78.9438 46.7188ZM100 46.875C94.8 46.875 90.8375 51.5438 91.6938 56.6813L96.3 84.3125C97 88.4938 103 88.4938 103.7 84.3125L108.306 56.6813C108.508 55.4748 108.444 54.2389 108.12 53.0596C107.795 51.8802 107.217 50.7858 106.427 49.8524C105.636 48.9191 104.652 48.1692 103.542 47.655C102.432 47.1408 101.223 46.8746 100 46.875ZM103.7 115.688C103 111.506 97 111.506 96.3 115.688L91.6938 143.319C91.4947 144.524 91.5604 145.758 91.8862 146.936C92.2119 148.113 92.7901 149.205 93.5804 150.137C94.3707 151.068 95.3543 151.817 96.4628 152.33C97.5714 152.843 98.7784 153.109 100 153.109C101.222 153.109 102.429 152.843 103.537 152.33C104.646 151.817 105.629 151.068 106.42 150.137C107.21 149.205 107.788 148.113 108.114 146.936C108.44 145.758 108.505 144.524 108.306 143.319L103.7 115.688Z" fill="#FF7979"/>
</svg>
